<svg xmlns="http://www.w3.org/2000/svg" xmlns:xlink="http://www.w3.org/1999/xlink" width="179.534" height="59.521" viewBox="0 0 179.534 59.521">
  <defs>
    <linearGradient id="linear-gradient" x1="0.5" y1="1" x2="0.5" gradientUnits="objectBoundingBox">
      <stop offset="0" stop-color="#2b3052"/>
      <stop offset="0.606" stop-color="#344e93"/>
    </linearGradient>
    <linearGradient id="linear-gradient-2" x1="0.568" y1="0.558" x2="0.003" y2="1.007" gradientUnits="objectBoundingBox">
      <stop offset="0" stop-color="#fff"/>
      <stop offset="1" stop-color="#252324"/>
    </linearGradient>
  </defs>
  <g id="Grupo_29" data-name="Grupo 29" transform="translate(-28.466 -436.818)">
    <g id="Grupo_28" data-name="Grupo 28" transform="translate(45.804 441.824)">
      <g id="Grupo_1" data-name="Grupo 1" transform="translate(35.115 22.288)">
        <path id="Caminho_1" data-name="Caminho 1" d="M2756.974,1520.5a2.171,2.171,0,0,0-.729-.666,1.946,1.946,0,0,0-.92-.213,1.848,1.848,0,0,0-1.384.6,1.992,1.992,0,0,0-.575,1.427,2.072,2.072,0,0,0,.572,1.482,1.839,1.839,0,0,0,1.387.6,1.961,1.961,0,0,0,.91-.21,2.01,2.01,0,0,0,.707-.627h.566a2.44,2.44,0,0,1-.893.959,2.531,2.531,0,0,1-3.041-.391,2.5,2.5,0,0,1-.716-1.823,2.454,2.454,0,0,1,.194-.966,2.551,2.551,0,0,1,.566-.823,2.352,2.352,0,0,1,1.713-.7,2.447,2.447,0,0,1,1.3.353,2.489,2.489,0,0,1,.915,1Z" transform="translate(-2752.859 -1519.104)" fill="#fff"/>
        <path id="Caminho_2" data-name="Caminho 2" d="M2782.294,1527.57a1.919,1.919,0,0,1,.553-1.38,1.76,1.76,0,0,1,1.31-.573,1.921,1.921,0,0,1,1.919,1.906,1.964,1.964,0,0,1-.55,1.4,1.769,1.769,0,0,1-1.333.58,1.806,1.806,0,0,1-1.348-.568A1.89,1.89,0,0,1,2782.294,1527.57Zm.493-.007a1.487,1.487,0,0,0,.4,1.061,1.321,1.321,0,0,0,1,.428,1.3,1.3,0,0,0,.99-.428,1.5,1.5,0,0,0,.4-1.068,1.473,1.473,0,0,0-.406-1.068,1.368,1.368,0,0,0-1.027-.419,1.273,1.273,0,0,0-.962.43A1.5,1.5,0,0,0,2782.787,1527.563Z" transform="translate(-2776.984 -1524.404)" fill="#fff"/>
        <path id="Caminho_3" data-name="Caminho 3" d="M2810.315,1526.5a1.469,1.469,0,0,1,.555-.483,1.652,1.652,0,0,1,.741-.164,1.278,1.278,0,0,1,1.087.448,2.409,2.409,0,0,1,.34,1.441v1.85h-.45v-1.946a1.713,1.713,0,0,0-.24-1.034.931.931,0,0,0-.783-.308,1.148,1.148,0,0,0-.552.128.964.964,0,0,0-.378.368,1.143,1.143,0,0,0-.12.342,4.239,4.239,0,0,0-.036.669v1.782h-.443v-2.052a1.421,1.421,0,0,0-.257-.935.976.976,0,0,0-.787-.3,1.18,1.18,0,0,0-.561.128.951.951,0,0,0-.382.368,1.081,1.081,0,0,0-.121.342,4.281,4.281,0,0,0-.035.669v1.782h-.463v-3.666h.463v.417a1.357,1.357,0,0,1,.5-.367,1.612,1.612,0,0,1,.645-.123,1.645,1.645,0,0,1,.76.175A1.267,1.267,0,0,1,2810.315,1526.5Z" transform="translate(-2797.586 -1524.601)" fill="#fff"/>
        <path id="Caminho_4" data-name="Caminho 4" d="M2843.753,1525.9h.464v.6a1.4,1.4,0,0,1,.571-.5,1.757,1.757,0,0,1,.792-.185,1.852,1.852,0,0,1,1.374.551,2,2,0,0,1,.007,2.738,1.8,1.8,0,0,1-1.344.553,1.83,1.83,0,0,1-.8-.173,1.547,1.547,0,0,1-.594-.5v1.766h-.464Zm.464,1.809a1.519,1.519,0,0,0,.412,1.072,1.292,1.292,0,0,0,.974.445,1.335,1.335,0,0,0,.989-.422,1.418,1.418,0,0,0,.414-1.035,1.5,1.5,0,0,0-.416-1.078,1.338,1.338,0,0,0-1-.434,1.283,1.283,0,0,0-.958.436A1.435,1.435,0,0,0,2844.216,1527.708Z" transform="translate(-2827.357 -1524.57)" fill="#fff"/>
        <path id="Caminho_5" data-name="Caminho 5" d="M2871.041,1528.985a1.492,1.492,0,0,1-.594.5,1.844,1.844,0,0,1-.808.18,1.8,1.8,0,0,1-1.343-.551,2,2,0,0,1,.012-2.737,1.849,1.849,0,0,1,1.371-.553,1.76,1.76,0,0,1,.777.171,1.555,1.555,0,0,1,.586.5v-.587h.46v3.666h-.46Zm0-1.277a1.428,1.428,0,0,0-.417-1.018,1.293,1.293,0,0,0-.96-.434,1.336,1.336,0,0,0-1,.434,1.5,1.5,0,0,0-.416,1.078,1.419,1.419,0,0,0,.414,1.035,1.339,1.339,0,0,0,.993.422,1.293,1.293,0,0,0,.975-.445A1.514,1.514,0,0,0,2871.041,1527.708Z" transform="translate(-2847.033 -1524.57)" fill="#fff"/>
        <path id="Caminho_6" data-name="Caminho 6" d="M2894.2,1529.685h-.477v-3.666h.443v.423a1.177,1.177,0,0,1,.378-.356,1.033,1.033,0,0,1,.479-.12l0,.51a.908.908,0,0,0-.635.265,1.126,1.126,0,0,0-.191.732Z" transform="translate(-2868.314 -1524.69)" fill="#fff"/>
        <path id="Caminho_7" data-name="Caminho 7" d="M2902.959,1524.537v-3.192h-.7v-.473h.7v-1.186h.47v1.186h.7v.473h-.7v3.192Z" transform="translate(-2875.313 -1519.543)" fill="#fff"/>
        <path id="Caminho_8" data-name="Caminho 8" d="M2916.316,1520.442h-.47v-.757h.47Zm-.47,4.095v-3.666h.47v3.666Z" transform="translate(-2886.446 -1519.543)" fill="#fff"/>
        <path id="Caminho_9" data-name="Caminho 9" d="M2923.836,1524.537v-4.852h.47v4.852Z" transform="translate(-2892.995 -1519.543)" fill="#fff"/>
        <path id="Caminho_10" data-name="Caminho 10" d="M2931.754,1519.685h.462v1.616a1.3,1.3,0,0,1,.489-.376,1.551,1.551,0,0,1,.638-.127,1.358,1.358,0,0,1,1.127.441,2.308,2.308,0,0,1,.352,1.435v1.862h-.462v-1.869a1.88,1.88,0,0,0-.24-1.108.95.95,0,0,0-.8-.311,1.178,1.178,0,0,0-.561.128.955.955,0,0,0-.382.368,1.091,1.091,0,0,0-.121.342,4.272,4.272,0,0,0-.035.669v1.782h-.462Z" transform="translate(-2899.485 -1519.543)" fill="#fff"/>
        <path id="Caminho_11" data-name="Caminho 11" d="M2956.286,1528.985a1.491,1.491,0,0,1-.595.5,1.842,1.842,0,0,1-.809.18,1.8,1.8,0,0,1-1.343-.551,2,2,0,0,1,.012-2.737,1.85,1.85,0,0,1,1.371-.553,1.763,1.763,0,0,1,.777.171,1.557,1.557,0,0,1,.586.5v-.587h.459v3.666h-.459Zm0-1.277a1.429,1.429,0,0,0-.417-1.018,1.293,1.293,0,0,0-.96-.434,1.338,1.338,0,0,0-1,.434,1.5,1.5,0,0,0-.415,1.078,1.418,1.418,0,0,0,.414,1.035,1.34,1.34,0,0,0,.993.422,1.294,1.294,0,0,0,.975-.445A1.514,1.514,0,0,0,2956.286,1527.708Z" transform="translate(-2916.901 -1524.57)" fill="#fff"/>
        <path id="Caminho_12" data-name="Caminho 12" d="M2979.008,1525.93h.456v.417a1.346,1.346,0,0,1,.5-.37,1.811,1.811,0,0,1,1.369.03,1.2,1.2,0,0,1,.5.43,1.367,1.367,0,0,1,.182.462,4.221,4.221,0,0,1,.054.781v1.916h-.462v-2.052a1.449,1.449,0,0,0-.248-.943.986.986,0,0,0-.8-.293,1.181,1.181,0,0,0-.561.128.958.958,0,0,0-.382.368,1.087,1.087,0,0,0-.121.342,4.22,4.22,0,0,0-.035.669v1.782h-.456Z" transform="translate(-2938.215 -1524.601)" fill="#fff"/>
        <path id="Caminho_13" data-name="Caminho 13" d="M3003.488,1521.451v-1.766h.472v4.852h-.472v-.553a1.7,1.7,0,0,1-.613.479,1.813,1.813,0,0,1-.777.171,1.783,1.783,0,0,1-1.335-.56,1.995,1.995,0,0,1-.007-2.731,1.8,1.8,0,0,1,1.342-.551,1.815,1.815,0,0,1,.788.168A1.634,1.634,0,0,1,3003.488,1521.451Zm.012,1.29a1.507,1.507,0,0,0-.414-1.069,1.294,1.294,0,0,0-.975-.443,1.34,1.34,0,0,0-.993.421,1.416,1.416,0,0,0-.414,1.031,1.507,1.507,0,0,0,.416,1.08,1.334,1.334,0,0,0,1,.437,1.289,1.289,0,0,0,.96-.437A1.428,1.428,0,0,0,3003.5,1522.741Z" transform="translate(-2955.599 -1519.543)" fill="#fff"/>
        <path id="Caminho_14" data-name="Caminho 14" d="M3025.109,1527.57a1.917,1.917,0,0,1,.553-1.38,1.761,1.761,0,0,1,1.31-.573,1.92,1.92,0,0,1,1.919,1.906,1.964,1.964,0,0,1-.55,1.4,1.769,1.769,0,0,1-1.333.58,1.807,1.807,0,0,1-1.348-.568A1.889,1.889,0,0,1,3025.109,1527.57Zm.493-.007a1.489,1.489,0,0,0,.4,1.061,1.322,1.322,0,0,0,1,.428,1.3,1.3,0,0,0,.99-.428,1.507,1.507,0,0,0,.4-1.068,1.473,1.473,0,0,0-.406-1.068,1.369,1.369,0,0,0-1.027-.419,1.273,1.273,0,0,0-.962.43A1.5,1.5,0,0,0,3025.6,1527.563Z" transform="translate(-2976 -1524.404)" fill="#fff"/>
        <path id="Caminho_15" data-name="Caminho 15" d="M3061.071,1522.743h.46a1.082,1.082,0,0,0,.255.717.819.819,0,0,0,.635.266.873.873,0,0,0,.671-.265,1,1,0,0,0,.249-.718c0-.44-.341-.772-1.02-1l-.121-.04a1.7,1.7,0,0,1-.768-.465,1.112,1.112,0,0,1-.235-.735,1.3,1.3,0,0,1,.361-.949,1.249,1.249,0,0,1,.935-.37,1.14,1.14,0,0,1,.866.337,1.453,1.453,0,0,1,.356.946h-.45a1.011,1.011,0,0,0-.236-.611.7.7,0,0,0-.537-.215.786.786,0,0,0-.589.234.828.828,0,0,0-.229.6.738.738,0,0,0,.069.328.716.716,0,0,0,.218.252,2.253,2.253,0,0,0,.586.253c.168.053.294.1.38.13a1.469,1.469,0,0,1,.681.469,1.229,1.229,0,0,1,.209.748,1.644,1.644,0,0,1-.385,1.138,1.3,1.3,0,0,1-1.021.431,1.239,1.239,0,0,1-.964-.409A1.577,1.577,0,0,1,3061.071,1522.743Z" transform="translate(-3005.475 -1519.135)" fill="#fff"/>
        <path id="Caminho_16" data-name="Caminho 16" d="M3079.7,1527.57a1.918,1.918,0,0,1,.553-1.38,1.761,1.761,0,0,1,1.31-.573,1.92,1.92,0,0,1,1.92,1.906,1.965,1.965,0,0,1-.551,1.4,1.768,1.768,0,0,1-1.333.58,1.808,1.808,0,0,1-1.348-.568A1.89,1.89,0,0,1,3079.7,1527.57Zm.494-.007a1.489,1.489,0,0,0,.4,1.061,1.322,1.322,0,0,0,1,.428,1.3,1.3,0,0,0,.989-.428,1.5,1.5,0,0,0,.4-1.068,1.473,1.473,0,0,0-.406-1.068,1.37,1.37,0,0,0-1.028-.419,1.271,1.271,0,0,0-.962.43A1.5,1.5,0,0,0,3080.194,1527.563Z" transform="translate(-3020.744 -1524.404)" fill="#fff"/>
        <path id="Caminho_17" data-name="Caminho 17" d="M3104.908,1524.537v-4.852h.471v4.852Z" transform="translate(-3041.405 -1519.543)" fill="#fff"/>
        <path id="Caminho_18" data-name="Caminho 18" d="M3112.789,1526.261h.464v1.946a1.763,1.763,0,0,0,.243,1.061.953.953,0,0,0,.8.312,1.163,1.163,0,0,0,.557-.128.993.993,0,0,0,.387-.372,1.07,1.07,0,0,0,.12-.338,4.239,4.239,0,0,0,.037-.678v-1.8h.469v3.666h-.469v-.4a1.3,1.3,0,0,1-.476.377,1.565,1.565,0,0,1-.636.116,1.394,1.394,0,0,1-1.144-.428,2.261,2.261,0,0,1-.349-1.422Z" transform="translate(-3047.864 -1524.932)" fill="#fff"/>
        <path id="Caminho_19" data-name="Caminho 19" d="M3137.195,1526.936a1.514,1.514,0,0,0-.528-.591,1.387,1.387,0,0,0-.741-.192,1.258,1.258,0,0,0-.961.43,1.511,1.511,0,0,0-.395,1.063,1.486,1.486,0,0,0,.4,1.057,1.285,1.285,0,0,0,.979.425,1.366,1.366,0,0,0,.753-.209,1.325,1.325,0,0,0,.5-.59h.521a1.874,1.874,0,0,1-.671.922,1.9,1.9,0,0,1-2.42-.238,1.974,1.974,0,0,1,.007-2.739,1.818,1.818,0,0,1,1.351-.565,1.779,1.779,0,0,1,1.051.321,1.941,1.941,0,0,1,.682.905Zm-1.239,2.909h.067a.865.865,0,0,1,.545.147.5.5,0,0,1,.188.426.518.518,0,0,1-.2.433.9.9,0,0,1-.563.154,2.575,2.575,0,0,1-.389-.03,3.942,3.942,0,0,1-.451-.1v-.26c.2.045.366.075.484.092a2.228,2.228,0,0,0,.309.025.566.566,0,0,0,.322-.075.256.256,0,0,0,.108-.224.3.3,0,0,0-.115-.267.617.617,0,0,0-.362-.084l-.094,0-.062,0v-.613h.209Z" transform="translate(-3065.311 -1524.48)" fill="#fff"/>
        <path id="Caminho_20" data-name="Caminho 20" d="M3158.061,1522.06a1.917,1.917,0,0,1,.553-1.38,1.76,1.76,0,0,1,1.31-.573,1.921,1.921,0,0,1,1.919,1.906,1.961,1.961,0,0,1-.55,1.4,1.767,1.767,0,0,1-1.333.58,1.8,1.8,0,0,1-1.347-.568A1.888,1.888,0,0,1,3158.061,1522.06Zm.493-.007a1.489,1.489,0,0,0,.4,1.061,1.323,1.323,0,0,0,1,.428,1.3,1.3,0,0,0,.99-.428,1.5,1.5,0,0,0,.4-1.068,1.473,1.473,0,0,0-.405-1.068,1.37,1.37,0,0,0-1.028-.419,1.273,1.273,0,0,0-.962.43A1.5,1.5,0,0,0,3158.554,1522.053Zm2.4-3.159a1.01,1.01,0,0,1-.246.458.542.542,0,0,1-.39.155.645.645,0,0,1-.1-.009c-.035-.006-.074-.014-.116-.025l-.324-.1c-.033-.009-.064-.016-.092-.021a.586.586,0,0,0-.084-.006.276.276,0,0,0-.179.063.45.45,0,0,0-.127.183h-.267a.887.887,0,0,1,.238-.458.578.578,0,0,1,.411-.158.495.495,0,0,1,.177.029l.319.1a.654.654,0,0,0,.094.027.473.473,0,0,0,.094.01.3.3,0,0,0,.186-.058.471.471,0,0,0,.134-.188Z" transform="translate(-3084.97 -1518.894)" fill="#fff"/>
        <path id="Caminho_21" data-name="Caminho 21" d="M3185.917,1527.793h-3.309a1.42,1.42,0,0,0,.433.967,1.36,1.36,0,0,0,.973.369,1.344,1.344,0,0,0,.744-.213,1.415,1.415,0,0,0,.51-.6h.534a2.106,2.106,0,0,1-.712.934,1.78,1.78,0,0,1-1.061.326,1.814,1.814,0,0,1-1.354-.57,2,2,0,0,1-.012-2.752,1.868,1.868,0,0,1,1.385-.546,1.742,1.742,0,0,1,1.348.569,2.1,2.1,0,0,1,.522,1.479Zm-.52-.41a1.631,1.631,0,0,0-.49-.92,1.369,1.369,0,0,0-.929-.309,1.3,1.3,0,0,0-.9.332,1.443,1.443,0,0,0-.454.9Z" transform="translate(-3104.69 -1524.48)" fill="#fff"/>
        <path id="Caminho_22" data-name="Caminho 22" d="M3206,1528.354h.482v.013a.83.83,0,0,0,.2.568.619.619,0,0,0,.486.226.649.649,0,0,0,.461-.173.575.575,0,0,0,.183-.437.6.6,0,0,0-.146-.422,1.331,1.331,0,0,0-.525-.3,1.9,1.9,0,0,1-.8-.443.927.927,0,0,1-.186-.606.974.974,0,0,1,.311-.731,1.05,1.05,0,0,1,.755-.3,1.031,1.031,0,0,1,.746.266,1.049,1.049,0,0,1,.3.743h-.5a.588.588,0,0,0-.164-.4.561.561,0,0,0-.406-.144.518.518,0,0,0-.383.155.523.523,0,0,0-.154.384.55.55,0,0,0,.064.276.587.587,0,0,0,.21.2,1.706,1.706,0,0,0,.387.16c.171.051.285.088.342.113a.987.987,0,0,1,.666,1.01,1.026,1.026,0,0,1-.329.783,1.17,1.17,0,0,1-.836.31,1.076,1.076,0,0,1-.83-.338A1.348,1.348,0,0,1,3206,1528.354Z" transform="translate(-3124.262 -1524.512)" fill="#fff"/>
        <path id="Caminho_23" data-name="Caminho 23" d="M3235.8,1524.537h-.477v-4.852h.477Z" transform="translate(-3148.298 -1519.543)" fill="#fff"/>
        <path id="Caminho_24" data-name="Caminho 24" d="M3243.709,1525.93h.456v.417a1.351,1.351,0,0,1,.5-.37,1.672,1.672,0,0,1,.652-.12,1.654,1.654,0,0,1,.718.15,1.2,1.2,0,0,1,.5.43,1.357,1.357,0,0,1,.182.462,4.153,4.153,0,0,1,.054.781v1.916h-.463v-2.052a1.447,1.447,0,0,0-.248-.943.985.985,0,0,0-.795-.293,1.18,1.18,0,0,0-.562.128.957.957,0,0,0-.382.368,1.093,1.093,0,0,0-.121.342,4.313,4.313,0,0,0-.035.669v1.782h-.456Z" transform="translate(-3155.168 -1524.601)" fill="#fff"/>
        <path id="Caminho_25" data-name="Caminho 25" d="M3264.565,1524.537v-3.192h-.7v-.473h.7v-1.186h.47v1.186h.7v.473h-.7v3.192Z" transform="translate(-3171.692 -1519.543)" fill="#fff"/>
        <path id="Caminho_26" data-name="Caminho 26" d="M3280.1,1527.793h-3.308a1.417,1.417,0,0,0,.433.967,1.36,1.36,0,0,0,.972.369,1.342,1.342,0,0,0,.743-.213,1.4,1.4,0,0,0,.51-.6h.533a2.1,2.1,0,0,1-.712.934,1.78,1.78,0,0,1-1.061.326,1.816,1.816,0,0,1-1.354-.57,2,2,0,0,1-.011-2.752,1.867,1.867,0,0,1,1.385-.546,1.743,1.743,0,0,1,1.348.569,2.1,2.1,0,0,1,.521,1.479Zm-.52-.41a1.629,1.629,0,0,0-.49-.92,1.369,1.369,0,0,0-.929-.309,1.3,1.3,0,0,0-.9.332,1.443,1.443,0,0,0-.454.9Z" transform="translate(-3181.884 -1524.48)" fill="#fff"/>
        <path id="Caminho_27" data-name="Caminho 27" d="M3301.512,1524.537v-4.852h.47v4.852Z" transform="translate(-3202.545 -1519.543)" fill="#fff"/>
        <path id="Caminho_28" data-name="Caminho 28" d="M3309.97,1520.442h-.47v-.757h.47Zm-.47,4.095v-3.666h.47v3.666Z" transform="translate(-3209.092 -1519.543)" fill="#fff"/>
        <path id="Caminho_29" data-name="Caminho 29" d="M3317.171,1529.833a.919.919,0,0,0,.386.5,1.243,1.243,0,0,0,.679.178,1.292,1.292,0,0,0,1.005-.416,1.594,1.594,0,0,0,.378-1.113v-.1a1.865,1.865,0,0,1-.606.548,1.543,1.543,0,0,1-.75.185,1.851,1.851,0,0,1-1.372-.552,1.99,1.99,0,0,1-.007-2.734,1.931,1.931,0,0,1,2.137-.383,1.648,1.648,0,0,1,.6.52v-.6h.46v3.06a2.172,2.172,0,0,1-.481,1.5,1.687,1.687,0,0,1-1.328.54,1.836,1.836,0,0,1-1.07-.309,1.382,1.382,0,0,1-.576-.824Zm-.327-2.163a1.509,1.509,0,0,0,.408,1.076,1.306,1.306,0,0,0,1.945,0,1.429,1.429,0,0,0,.416-1.021,1.523,1.523,0,0,0-.409-1.07,1.276,1.276,0,0,0-.967-.443,1.322,1.322,0,0,0-.982.421A1.431,1.431,0,0,0,3316.844,1527.67Z" transform="translate(-3214.701 -1524.538)" fill="#fff"/>
        <path id="Caminho_30" data-name="Caminho 30" d="M3344.92,1527.793h-3.308a1.415,1.415,0,0,0,.434.967,1.357,1.357,0,0,0,.972.369,1.341,1.341,0,0,0,.743-.213,1.407,1.407,0,0,0,.51-.6h.534a2.1,2.1,0,0,1-.712.934,1.781,1.781,0,0,1-1.061.326,1.814,1.814,0,0,1-1.354-.57,2,2,0,0,1-.011-2.752,1.866,1.866,0,0,1,1.385-.546,1.741,1.741,0,0,1,1.348.569,2.1,2.1,0,0,1,.522,1.479Zm-.52-.41a1.631,1.631,0,0,0-.49-.92,1.369,1.369,0,0,0-.929-.309,1.3,1.3,0,0,0-.9.332,1.444,1.444,0,0,0-.454.9Z" transform="translate(-3235.012 -1524.48)" fill="#fff"/>
        <path id="Caminho_31" data-name="Caminho 31" d="M3366.3,1525.93h.456v.417a1.347,1.347,0,0,1,.5-.37,1.811,1.811,0,0,1,1.369.03,1.2,1.2,0,0,1,.5.43,1.358,1.358,0,0,1,.183.462,4.2,4.2,0,0,1,.054.781v1.916h-.462v-2.052a1.45,1.45,0,0,0-.248-.943.987.987,0,0,0-.8-.293,1.178,1.178,0,0,0-.561.128.957.957,0,0,0-.382.368,1.087,1.087,0,0,0-.121.342,4.273,4.273,0,0,0-.035.669v1.782h-.456Z" transform="translate(-3255.645 -1524.601)" fill="#fff"/>
        <path id="Caminho_32" data-name="Caminho 32" d="M3387.153,1524.537v-3.192h-.7v-.473h.7v-1.186h.471v1.186h.7v.473h-.7v3.192Z" transform="translate(-3272.167 -1519.543)" fill="#fff"/>
        <path id="Caminho_33" data-name="Caminho 33" d="M3402.689,1527.793h-3.309a1.419,1.419,0,0,0,.433.967,1.359,1.359,0,0,0,.973.369,1.343,1.343,0,0,0,.743-.213,1.408,1.408,0,0,0,.51-.6h.533a2.1,2.1,0,0,1-.711.934,1.782,1.782,0,0,1-1.062.326,1.814,1.814,0,0,1-1.353-.57,2,2,0,0,1-.012-2.752,1.868,1.868,0,0,1,1.385-.546,1.742,1.742,0,0,1,1.348.569,2.1,2.1,0,0,1,.522,1.479Zm-.52-.41a1.631,1.631,0,0,0-.49-.92,1.37,1.37,0,0,0-.929-.309,1.307,1.307,0,0,0-.9.332,1.447,1.447,0,0,0-.453.9Z" transform="translate(-3282.36 -1524.48)" fill="#fff"/>
        <path id="Caminho_34" data-name="Caminho 34" d="M3422.774,1528.354h.483v.013a.83.83,0,0,0,.2.568.619.619,0,0,0,.486.226.647.647,0,0,0,.461-.173.575.575,0,0,0,.183-.437.6.6,0,0,0-.146-.422,1.332,1.332,0,0,0-.525-.3,1.9,1.9,0,0,1-.8-.443.928.928,0,0,1-.186-.606.974.974,0,0,1,.311-.731,1.05,1.05,0,0,1,.755-.3,1.033,1.033,0,0,1,.746.266,1.051,1.051,0,0,1,.3.743h-.5a.59.59,0,0,0-.164-.4.561.561,0,0,0-.406-.144.527.527,0,0,0-.536.539.55.55,0,0,0,.064.276.593.593,0,0,0,.209.2,1.72,1.72,0,0,0,.388.16c.17.051.284.088.341.113a1.105,1.105,0,0,1,.505.39,1.093,1.093,0,0,1,.162.62,1.025,1.025,0,0,1-.33.783,1.169,1.169,0,0,1-.835.31,1.076,1.076,0,0,1-.83-.338A1.348,1.348,0,0,1,3422.774,1528.354Z" transform="translate(-3301.933 -1524.512)" fill="#fff"/>
      </g>
      <g id="Grupo_2" data-name="Grupo 2" transform="translate(35.225 5.027)">
        <path id="Caminho_35" data-name="Caminho 35" d="M2754.806,1423.2v5.137a5.637,5.637,0,0,1,1.875-1.5,5.241,5.241,0,0,1,2.278-.484,5.064,5.064,0,0,1,3.774,1.586,5.49,5.49,0,0,1-3.995,9.363,4.973,4.973,0,0,1-2.15-.461,5.454,5.454,0,0,1-1.784-1.391v1.576h-1.336V1423.2Zm0,8.707a4.051,4.051,0,0,0,1.2,2.911,3.723,3.723,0,0,0,2.754,1.239,3.874,3.874,0,0,0,2.9-1.244,4.262,4.262,0,0,0,1.2-3.076,4.015,4.015,0,0,0-1.192-2.939,3.885,3.885,0,0,0-2.855-1.2,3.73,3.73,0,0,0-2.833,1.253A4.323,4.323,0,0,0,2754.806,1431.91Z" transform="translate(-2753.47 -1423.203)" fill="#fff"/>
        <path id="Caminho_36" data-name="Caminho 36" d="M2826.75,1449.7a4.3,4.3,0,0,1-1.716,1.416,5.381,5.381,0,0,1-2.332.513,5.215,5.215,0,0,1-3.875-1.572,5.644,5.644,0,0,1,.034-7.8,5.377,5.377,0,0,1,3.956-1.577,5.114,5.114,0,0,1,2.241.489,4.453,4.453,0,0,1,1.692,1.41v-1.671h1.327v10.445h-1.327Zm0-3.636a4.034,4.034,0,0,0-1.2-2.9,3.752,3.752,0,0,0-2.769-1.239,3.882,3.882,0,0,0-2.9,1.239,4.246,4.246,0,0,0-1.2,3.071,4.028,4.028,0,0,0,1.192,2.949,3.9,3.9,0,0,0,2.866,1.2,3.745,3.745,0,0,0,2.812-1.268A4.282,4.282,0,0,0,2826.75,1446.062Z" transform="translate(-2805.77 -1437.525)" fill="#fff"/>
        <path id="Caminho_37" data-name="Caminho 37" d="M2892.856,1443.855a4.371,4.371,0,0,0-1.525-1.685,4.042,4.042,0,0,0-2.139-.546,3.645,3.645,0,0,0-2.774,1.226,4.275,4.275,0,0,0-1.141,3.029,4.219,4.219,0,0,0,1.145,3.015,3.734,3.734,0,0,0,2.827,1.211,3.968,3.968,0,0,0,2.173-.6,3.8,3.8,0,0,0,1.433-1.68h1.5a5.34,5.34,0,0,1-1.933,2.63,5.551,5.551,0,0,1-6.985-.679,5.522,5.522,0,0,1,3.918-9.415,5.169,5.169,0,0,1,3.034.916,5.508,5.508,0,0,1,1.966,2.578Z" transform="translate(-2860.336 -1437.266)" fill="#fff"/>
        <path id="Caminho_38" data-name="Caminho 38" d="M2952.27,1437.029h-1.356V1423.2h1.356v8.224l3.817-4.843h1.558l-3.837,4.843,4.664,5.6h-1.712l-4.49-5.442Z" transform="translate(-2915.299 -1423.203)" fill="#fff"/>
        <path id="Caminho_39" data-name="Caminho 39" d="M2990.1,1447.894h1.394v.038a2.349,2.349,0,0,0,.568,1.619,1.8,1.8,0,0,0,1.4.641,1.866,1.866,0,0,0,1.327-.494,1.628,1.628,0,0,0,.529-1.244,1.716,1.716,0,0,0-.418-1.206,3.9,3.9,0,0,0-1.514-.855,5.454,5.454,0,0,1-2.3-1.263,2.609,2.609,0,0,1-.539-1.729,2.76,2.76,0,0,1,.9-2.079,3.047,3.047,0,0,1,2.179-.854,2.776,2.776,0,0,1,3.009,2.877h-1.452a1.674,1.674,0,0,0-.475-1.15,1.628,1.628,0,0,0-1.169-.407,1.51,1.51,0,0,0-1.549,1.538,1.55,1.55,0,0,0,.183.783,1.679,1.679,0,0,0,.605.575,4.82,4.82,0,0,0,1.12.456q.736.219.985.323a3.187,3.187,0,0,1,1.457,1.11,3.1,3.1,0,0,1,.467,1.767,2.913,2.913,0,0,1-.952,2.231,3.411,3.411,0,0,1-2.414.883,3.131,3.131,0,0,1-2.394-.964A3.82,3.82,0,0,1,2990.1,1447.894Z" transform="translate(-2947.413 -1437.354)" fill="#fff"/>
        <path id="Caminho_40" data-name="Caminho 40" d="M3035.589,1425.358h-1.356V1423.2h1.356Zm-1.356,11.671v-10.445h1.356v10.445Z" transform="translate(-2983.588 -1423.203)" fill="#fff"/>
        <path id="Caminho_41" data-name="Caminho 41" d="M3047.708,1437.029v-9.1h-2.01v-1.349h2.01v-3.38h1.356v3.38h2.009v1.349h-2.009v9.1Z" transform="translate(-2992.986 -1423.203)" fill="#fff"/>
        <path id="Caminho_42" data-name="Caminho 42" d="M3087.089,1446.3h-9.548a4.019,4.019,0,0,0,1.25,2.757,3.953,3.953,0,0,0,2.807,1.051,3.892,3.892,0,0,0,2.144-.61,4.028,4.028,0,0,0,1.471-1.7h1.538a6,6,0,0,1-2.053,2.661,5.189,5.189,0,0,1-3.062.928,5.264,5.264,0,0,1-3.9-1.624,5.66,5.66,0,0,1-.033-7.843,5.422,5.422,0,0,1,4-1.557,5.064,5.064,0,0,1,3.889,1.621,5.948,5.948,0,0,1,1.5,4.216Zm-1.5-1.168a4.654,4.654,0,0,0-1.414-2.624,3.987,3.987,0,0,0-2.684-.881,3.788,3.788,0,0,0-2.605.947,4.1,4.1,0,0,0-1.307,2.557Z" transform="translate(-3017.934 -1437.266)" fill="#fff"/>
      </g>
      <path id="Caminho_43" data-name="Caminho 43" d="M3149.442,1487.385a1.2,1.2,0,0,1,.875.352,1.194,1.194,0,0,1-.005,1.708,1.2,1.2,0,0,1-.87.352,1.191,1.191,0,0,1-.859-.352,1.194,1.194,0,0,1,0-1.708A1.183,1.183,0,0,1,3149.442,1487.385Z" transform="translate(-3041.789 -1470.781)" fill="#e9b732"/>
      <path id="Caminho_44" data-name="Caminho 44" d="M3346.352,1487.385a1.2,1.2,0,0,1,.875.352,1.2,1.2,0,0,1-.005,1.708,1.205,1.205,0,0,1-.87.352,1.191,1.191,0,0,1-.859-.352,1.194,1.194,0,0,1-.005-1.708A1.182,1.182,0,0,1,3346.352,1487.385Z" transform="translate(-3203.179 -1470.781)" fill="#e9b732"/>
      <g id="Grupo_3" data-name="Grupo 3" transform="translate(110.781 8.831)">
        <path id="Caminho_45" data-name="Caminho 45" d="M3176.246,1457.7a2.854,2.854,0,0,1,1.5.382,3.087,3.087,0,0,1,1.071,1.186l.021.037h1.228l-.039-.1a4.04,4.04,0,0,0-1.44-1.887,3.805,3.805,0,0,0-2.224-.672,3.9,3.9,0,0,0-2.857,1.179,4.09,4.09,0,0,0-.013,5.719,4.067,4.067,0,0,0,5.12.5,3.925,3.925,0,0,0,1.417-1.927l.035-.1h-1.228l-.02.042a2.667,2.667,0,0,1-1,1.179,2.806,2.806,0,0,1-1.526.419,2.631,2.631,0,0,1-1.982-.849,2.98,2.98,0,0,1-.8-2.12,3.022,3.022,0,0,1,.8-2.13A2.563,2.563,0,0,1,3176.246,1457.7Z" transform="translate(-3172.334 -1454.415)" fill="#fff"/>
        <path id="Caminho_46" data-name="Caminho 46" d="M3222.152,1456.452a3.763,3.763,0,0,0-2.771,1.2,3.987,3.987,0,0,0-1.169,2.88,3.934,3.934,0,0,0,1.166,2.849,3.857,3.857,0,0,0,2.85,1.186,3.779,3.779,0,0,0,2.82-1.211,4.083,4.083,0,0,0,1.162-2.92,3.827,3.827,0,0,0-1.188-2.806A3.946,3.946,0,0,0,3222.152,1456.452Zm.076,7.045a2.7,2.7,0,0,1-2.031-.856,3.185,3.185,0,0,1,0-4.256,2.6,2.6,0,0,1,1.944-.859,2.806,2.806,0,0,1,2.083.836,2.942,2.942,0,0,1,.82,2.14,3.007,3.007,0,0,1-.81,2.141A2.656,2.656,0,0,1,3222.228,1463.5Z" transform="translate(-3209.936 -1454.259)" fill="#fff"/>
        <path id="Caminho_47" data-name="Caminho 47" d="M3275.22,1456.944a3.528,3.528,0,0,0-1.571.346,3.118,3.118,0,0,0-1.117.925,2.737,2.737,0,0,0-1.058-.9,3.547,3.547,0,0,0-1.61-.367,3.473,3.473,0,0,0-1.367.259,2.889,2.889,0,0,0-.927.635v-.743h-1.106v7.661h1.106v-3.728a8.662,8.662,0,0,1,.072-1.357,2.065,2.065,0,0,1,.244-.676,1.9,1.9,0,0,1,.763-.728,2.416,2.416,0,0,1,1.133-.255,1.981,1.981,0,0,1,1.578.594,2.833,2.833,0,0,1,.516,1.87v4.281h1.064v-3.728a8.369,8.369,0,0,1,.075-1.356,2.268,2.268,0,0,1,.24-.677,1.914,1.914,0,0,1,.757-.728,2.344,2.344,0,0,1,1.111-.255,1.885,1.885,0,0,1,1.569.605,3.427,3.427,0,0,1,.483,2.077v4.063h1.078v-3.865a4.979,4.979,0,0,0-.72-3A2.745,2.745,0,0,0,3275.22,1456.944Z" transform="translate(-3249.484 -1454.662)" fill="#fff"/>
        <path id="Caminho_48" data-name="Caminho 48" d="M3375.252,1446.561a3.863,3.863,0,0,0-1.671.355,4.04,4.04,0,0,0-1.246.953v-3.576h-1.106v10.094h1.106v-1.019a3.934,3.934,0,0,0,1.181.879,3.666,3.666,0,0,0,1.577.338,4.051,4.051,0,0,0,2.927-6.859A3.728,3.728,0,0,0,3375.252,1446.561Zm-.146,6.984a2.626,2.626,0,0,1-1.931-.87,2.86,2.86,0,0,1-.841-2.045,3.053,3.053,0,0,1,.821-2.151,2.626,2.626,0,0,1,1.985-.878,2.737,2.737,0,0,1,2,.843,2.829,2.829,0,0,1,.837,2.064,3.015,3.015,0,0,1-.842,2.165A2.73,2.73,0,0,1,3375.107,1453.545Z" transform="translate(-3335.352 -1444.293)" fill="#fff"/>
        <path id="Caminho_49" data-name="Caminho 49" d="M3422.063,1457.163l-.073,0a2.237,2.237,0,0,0-1.026.255,2.356,2.356,0,0,0-.679.583v-.729h-1.065v7.661h1.134v-4.609a2.221,2.221,0,0,1,.381-1.453,1.839,1.839,0,0,1,1.27-.519l.066-.006Z" transform="translate(-3374.686 -1454.841)" fill="#fff"/>
      </g>
      <g id="Grupo_27" data-name="Grupo 27">
        <g id="Grupo_26" data-name="Grupo 26">
          <g id="Grupo_5" data-name="Grupo 5" transform="translate(0.004)">
            <g id="Grupo_4" data-name="Grupo 4">
              <path id="Caminho_50" data-name="Caminho 50" d="M2582.215,1426.158h-14.863a6.936,6.936,0,0,1-6.927-6.928v-14.742a6.936,6.936,0,0,1,6.927-6.928h15.228v.033a6.91,6.91,0,0,1,6.261,6.895v14.742a6.912,6.912,0,0,1-6.261,6.9v.025Z" transform="translate(-2560.025 -1397.159)" fill="#e9b733"/>
              <path id="Caminho_51" data-name="Caminho 51" d="M2582.215,1426.158h-13.053l-8.737-7.286v-14.384a6.936,6.936,0,0,1,6.927-6.928h15.228v.033a6.91,6.91,0,0,1,6.261,6.895v14.742a6.912,6.912,0,0,1-6.261,6.9v.025Zm0,0h-13.053l-8.737-7.286v-14.384a6.936,6.936,0,0,1,6.927-6.928h15.228v.033a6.91,6.91,0,0,1,6.261,6.895v14.742a6.912,6.912,0,0,1-6.261,6.9v.025Z" transform="translate(-2560.025 -1397.159)" fill="url(#linear-gradient)"/>
              <path id="Caminho_52" data-name="Caminho 52" d="M2568.625,1515.043l-6.191-8.971a3.677,3.677,0,0,1-2.594,2.021l8.343,6.951Z" transform="translate(-2559.545 -1486.097)" fill="url(#linear-gradient-2)"/>
              <path id="Caminho_53" data-name="Caminho 53" d="M2580.472,1395.334h-15.141a7.131,7.131,0,0,0-7.123,7.122v15.158a7.13,7.13,0,0,0,7.123,7.121h15.141a7.13,7.13,0,0,0,7.122-7.121v-15.158A7.13,7.13,0,0,0,2580.472,1395.334Zm6.477,22.337a6.427,6.427,0,0,1-6.42,6.419h-15.254a6.426,6.426,0,0,1-6.419-6.419V1402.4a6.427,6.427,0,0,1,6.419-6.42h15.254a6.428,6.428,0,0,1,6.42,6.42Z" transform="translate(-2558.208 -1395.334)" fill="#fff"/>
            </g>
          </g>
          <g id="Grupo_25" data-name="Grupo 25" transform="translate(0 12.79)">
            <g id="Grupo_7" data-name="Grupo 7">
              <g id="Grupo_6" data-name="Grupo 6">
                <path id="Caminho_54" data-name="Caminho 54" d="M2697.17,1543.463a7.334,7.334,0,0,0,1.389-1.393,19.556,19.556,0,0,1-2.421,3.6.509.509,0,0,1-.72.038A15,15,0,0,0,2697.17,1543.463Z" transform="translate(-2670.664 -1528.391)" fill="#fff"/>
                <path id="Caminho_55" data-name="Caminho 55" d="M2567.528,1543.463a7.321,7.321,0,0,1-1.389-1.393,19.556,19.556,0,0,0,2.421,3.6.51.51,0,0,0,.72.038A14.969,14.969,0,0,1,2567.528,1543.463Z" transform="translate(-2564.704 -1528.391)" fill="#fff"/>
                <path id="Caminho_56" data-name="Caminho 56" d="M2562.052,1473.3a.51.51,0,0,0,.478-.54,11.934,11.934,0,0,0-2.162-5.21,2.926,2.926,0,0,0-2.182-1.307v.477C2560.847,1466.7,2562.052,1473.3,2562.052,1473.3Z" transform="translate(-2558.187 -1466.239)" fill="#fff"/>
                <path id="Caminho_57" data-name="Caminho 57" d="M2697.4,1473.3a.511.511,0,0,1-.478-.54,11.934,11.934,0,0,1,2.162-5.21,2.927,2.927,0,0,1,2.182-1.307v.477C2698.6,1466.7,2697.4,1473.3,2697.4,1473.3Z" transform="translate(-2671.892 -1466.239)" fill="#fff"/>
                <path id="Caminho_58" data-name="Caminho 58" d="M2600.156,1486.263a38.471,38.471,0,0,1-8.263-2.087,8.815,8.815,0,0,0-2.99-.674,8.022,8.022,0,0,0-1.871.345c-2.808.752-6.24,1.51-9.047,2.262a21.449,21.449,0,0,1,.7,4.6,64.973,64.973,0,0,1-.382,6.813s0,.008,0,.012h0a.056.056,0,0,0,0,.02c.07.162,6.033,3.7,11.4,3.65,4.236-.041,10.028-3.54,10.028-3.54a12.636,12.636,0,0,1-.375-3.017c0-.576.031-1.18.08-1.838h-.04a37.147,37.147,0,0,1,.421-3.7C2599.969,1488.186,2600.156,1486.263,2600.156,1486.263Z" transform="translate(-2574.414 -1480.387)" fill="#000105" opacity="0.35"/>
              </g>
            </g>
            <g id="Grupo_24" data-name="Grupo 24" transform="translate(3.571 3.248)">
              <g id="Grupo_9" data-name="Grupo 9">
                <g id="Grupo_8" data-name="Grupo 8">
                  <path id="Caminho_59" data-name="Caminho 59" d="M2577.985,1486.856c2.807-.752,6.24-1.51,9.047-2.262a8.028,8.028,0,0,1,1.871-.345,8.812,8.812,0,0,1,2.99.674,38.485,38.485,0,0,0,8.263,2.087s-.187,1.923-.336,2.848c-.4,2.493-.766,6.058-.086,8.552,0,0-5.792,3.5-10.028,3.539-5.371.052-11.333-3.488-11.4-3.65-.049-.112.453-3.639.379-6.847A21.449,21.449,0,0,0,2577.985,1486.856Z" transform="translate(-2577.985 -1484.248)" fill="#f3f3f3"/>
                </g>
              </g>
              <g id="Grupo_17" data-name="Grupo 17" transform="translate(0.667 0.52)">
                <g id="Grupo_16" data-name="Grupo 16">
                  <g id="Grupo_10" data-name="Grupo 10" transform="translate(0 2.391)">
                    <path id="Caminho_60" data-name="Caminho 60" d="M2581.781,1500.717a.048.048,0,0,1-.047-.036c-.03-.12-.049-.185-.049-.185a.047.047,0,0,1,0-.037.047.047,0,0,1,.029-.023l.186-.05a.048.048,0,0,1,.059.034.048.048,0,0,1-.034.059l-.139.037.036.14a.048.048,0,0,1-.035.058Z" transform="translate(-2581.684 -1500.385)" fill="#bbb"/>
                  </g>
                  <g id="Grupo_11" data-name="Grupo 11" transform="translate(0.556)">
                    <path id="Caminho_61" data-name="Caminho 61" d="M2604.433,1489.735h-.007l-.378-.057a.048.048,0,0,1-.04-.055.049.049,0,0,1,.055-.04l.377.056a.048.048,0,0,1-.007.1Zm-.754-.118h-.009l-.376-.067a.048.048,0,1,1,.017-.095l.375.067a.048.048,0,0,1,.04.056A.049.049,0,0,1,2603.679,1489.617Zm-18.866-.1a.048.048,0,0,1-.012-.095l.37-.1a.048.048,0,1,1,.024.094l-.369.1Zm18.116-.041h-.01q-.189-.037-.375-.077a.048.048,0,0,1,.02-.094l.373.077a.048.048,0,0,1-.009.1Zm-17.376-.149a.049.049,0,0,1-.047-.036.048.048,0,0,1,.035-.058l.37-.093a.048.048,0,1,1,.024.093l-.37.094Zm16.629-.01h-.01l-.372-.087a.048.048,0,0,1-.036-.058.047.047,0,0,1,.058-.036l.37.087a.048.048,0,0,1-.011.1Zm-15.888-.176a.049.049,0,0,1-.047-.037.048.048,0,0,1,.035-.058l.371-.092a.048.048,0,0,1,.058.035.047.047,0,0,1-.035.058l-.371.092Zm15.146,0-.012,0-.37-.1a.048.048,0,1,1,.025-.093l.369.1a.048.048,0,0,1-.012.1Zm-14.405-.18a.048.048,0,0,1-.011-.1l.371-.09a.048.048,0,1,1,.023.094l-.371.09Zm13.667-.016-.012,0-.368-.1a.048.048,0,1,1,.027-.093l.366.1a.048.048,0,0,1-.013.095Zm-12.925-.164a.048.048,0,0,1-.011-.095l.371-.09a.048.048,0,0,1,.022.094l-.371.09Zm12.192-.048-.014,0-.365-.111a.048.048,0,1,1,.028-.092l.365.111a.048.048,0,0,1-.014.094Zm-11.45-.132a.048.048,0,0,1-.011-.095l.371-.09a.049.049,0,0,1,.058.036.048.048,0,0,1-.036.058l-.371.09Zm10.72-.094-.014,0-.364-.116a.049.049,0,0,1-.031-.061.048.048,0,0,1,.06-.031l.364.116a.048.048,0,0,1,.031.061A.048.048,0,0,1,2599.239,1488.508Zm-9.978-.086a.048.048,0,0,1-.011-.095l.371-.091a.048.048,0,0,1,.023.094l-.372.09Zm9.251-.148-.015,0-.363-.12a.048.048,0,1,1,.031-.091l.362.12a.048.048,0,0,1-.015.094Zm-8.508-.033a.048.048,0,0,1-.011-.1l.371-.091a.048.048,0,1,1,.023.094l-.371.091Zm.742-.183a.048.048,0,0,1-.047-.037.048.048,0,0,1,.035-.058l.37-.093a.048.048,0,0,1,.023.094l-.371.092Zm7.041-.026a.043.043,0,0,1-.015,0l-.362-.122a.049.049,0,0,1-.03-.061.048.048,0,0,1,.061-.03l.362.122a.048.048,0,0,1-.016.094Zm-6.3-.161a.049.049,0,0,1-.047-.036.048.048,0,0,1,.035-.059l.37-.094a.048.048,0,1,1,.024.093l-.37.095Zm5.577-.085-.015,0-.361-.123a.048.048,0,0,1-.031-.061.049.049,0,0,1,.061-.031l.357.121a.05.05,0,0,1,.033.062A.047.047,0,0,1,2597.064,1487.788Zm-4.837-.106a.048.048,0,0,1-.012-.095l.369-.1a.048.048,0,0,1,.059.034.048.048,0,0,1-.034.059l-.37.1Zm4.114-.134a.041.041,0,0,1-.014,0c-.131-.04-.25-.075-.365-.107a.048.048,0,0,1,.025-.093c.115.031.236.067.368.108a.048.048,0,0,1-.014.094Zm-3.375-.061a.048.048,0,0,1-.012-.095c.123-.033.247-.064.371-.093a.049.049,0,0,1,.058.036.048.048,0,0,1-.036.058c-.123.029-.247.061-.369.093Zm2.638-.138h-.011c-.128-.028-.253-.051-.372-.069a.047.047,0,0,1-.041-.055.049.049,0,0,1,.055-.04c.122.018.249.042.378.07a.048.048,0,0,1-.01.1Zm-1.894-.035a.048.048,0,0,1-.009-.1c.135-.025.259-.044.381-.058a.047.047,0,0,1,.054.042.049.049,0,0,1-.042.053c-.119.014-.242.033-.374.058Zm1.139-.077h0q-.188-.013-.37-.009l-.009-.048,0-.048c.131,0,.252,0,.38.009a.048.048,0,0,1,0,.1Z" transform="translate(-2584.764 -1487.13)" fill="#bbb"/>
                  </g>
                  <g id="Grupo_12" data-name="Grupo 12" transform="translate(20.556 2.561)">
                    <path id="Caminho_62" data-name="Caminho 62" d="M2695.864,1501.639h0a.048.048,0,0,1-.043-.053l.014-.145-.145-.019a.048.048,0,0,1-.042-.054.049.049,0,0,1,.054-.042l.191.024a.048.048,0,0,1,.042.053l-.019.192A.048.048,0,0,1,2695.864,1501.639Z" transform="translate(-2695.643 -1501.326)" fill="#bbb"/>
                  </g>
                  <g id="Grupo_13" data-name="Grupo 13" transform="translate(19.997 3.158)">
                    <path id="Caminho_63" data-name="Caminho 63" d="M2692.817,1514.268a.048.048,0,0,1-.047-.039c-.024-.122-.047-.25-.067-.379a.048.048,0,0,1,.1-.015c.02.129.043.255.067.376a.048.048,0,0,1-.038.057Zm-.12-.757a.048.048,0,0,1-.048-.043c-.015-.126-.029-.254-.041-.383a.048.048,0,0,1,.044-.053.049.049,0,0,1,.052.044c.012.128.025.255.04.38a.047.047,0,0,1-.042.054Zm-.07-.764a.048.048,0,0,1-.048-.045q-.012-.191-.02-.384a.048.048,0,0,1,.046-.05.05.05,0,0,1,.051.046c.005.128.011.255.02.382a.048.048,0,0,1-.045.051Zm-.031-.766a.048.048,0,0,1-.049-.047c0-.115,0-.232,0-.348v-.036a.048.048,0,0,1,.1,0v.037c0,.115,0,.231,0,.346a.048.048,0,0,1-.048.049Zm0-.767h0a.048.048,0,0,1-.047-.049q0-.192.011-.384a.046.046,0,0,1,.05-.047.049.049,0,0,1,.046.05c0,.128-.009.255-.011.383A.048.048,0,0,1,2692.6,1511.213Zm.028-.766h0a.048.048,0,0,1-.046-.051c.007-.128.015-.256.023-.383a.048.048,0,1,1,.1.006q-.013.191-.023.382A.048.048,0,0,1,2692.625,1510.447Zm.051-.765h0a.048.048,0,0,1-.044-.052q.015-.192.034-.382a.048.048,0,1,1,.1.009q-.018.189-.033.381A.048.048,0,0,1,2692.676,1509.682Zm.071-.763h0a.048.048,0,0,1-.043-.053c.013-.128.028-.256.042-.382a.048.048,0,0,1,.1.011c-.015.126-.029.253-.042.381A.049.049,0,0,1,2692.747,1508.918Zm.088-.762h-.006a.048.048,0,0,1-.042-.054c.016-.128.033-.255.05-.381a.049.049,0,0,1,.054-.041.048.048,0,0,1,.041.055q-.026.187-.05.379A.048.048,0,0,1,2692.835,1508.156Zm.1-.76h-.007a.048.048,0,0,1-.041-.055c.019-.129.039-.256.058-.38a.048.048,0,1,1,.1.015q-.029.186-.058.379A.048.048,0,0,1,2692.94,1507.4Zm.117-.758h-.007a.048.048,0,0,1-.041-.055c.017-.117.034-.245.052-.379a.048.048,0,1,1,.1.012c-.017.134-.035.263-.052.381A.048.048,0,0,1,2693.057,1506.638Zm.1-.761h-.006a.048.048,0,0,1-.042-.054c.015-.127.03-.255.045-.381a.048.048,0,1,1,.1.011c-.014.126-.029.255-.044.382A.048.048,0,0,1,2693.157,1505.877Zm.087-.763h-.005a.048.048,0,0,1-.042-.053c.015-.136.029-.265.041-.381a.047.047,0,0,1,.053-.043.048.048,0,0,1,.043.053c-.013.117-.026.245-.041.382A.048.048,0,0,1,2693.244,1505.115Z" transform="translate(-2692.544 -1504.637)" fill="#bbb"/>
                  </g>
                  <g id="Grupo_14" data-name="Grupo 14" transform="translate(20.187 13.067)">
                    <path id="Caminho_64" data-name="Caminho 64" d="M2693.642,1559.95a.048.048,0,0,1-.024-.09l.134-.078c-.013-.05-.026-.1-.039-.152a.048.048,0,0,1,.094-.023c.015.062.031.125.048.186a.049.049,0,0,1-.022.054s-.058.035-.166.1A.051.051,0,0,1,2693.642,1559.95Z" transform="translate(-2693.594 -1559.57)" fill="#bbb"/>
                  </g>
                  <g id="Grupo_15" data-name="Grupo 15" transform="translate(0.135 2.978)">
                    <path id="Caminho_65" data-name="Caminho 65" d="M2593.2,1517.324a.048.048,0,0,1,0-.1h.11q.134,0,.271-.008a.045.045,0,0,1,.051.046.049.049,0,0,1-.046.05c-.092,0-.184.007-.274.008Zm-.384-.006h0c-.127,0-.255-.01-.383-.018a.048.048,0,0,1,.006-.1c.127.008.253.014.38.019a.048.048,0,0,1,0,.1Zm1.147-.028a.048.048,0,0,1,0-.1c.123-.011.25-.025.379-.042a.048.048,0,1,1,.012.1c-.129.017-.258.031-.383.042Zm-1.91-.02h0q-.191-.018-.382-.04a.048.048,0,0,1-.042-.054.048.048,0,0,1,.053-.042c.126.015.253.028.38.04a.048.048,0,0,1,0,.1Zm2.67-.078a.048.048,0,0,1-.008-.1c.125-.021.25-.044.375-.068a.048.048,0,0,1,.019.094q-.19.038-.378.069Zm-3.43-.011h-.007c-.126-.018-.253-.038-.38-.059a.048.048,0,0,1-.039-.055.048.048,0,0,1,.055-.04q.188.032.378.059a.048.048,0,0,1-.007.1Zm-.756-.127h-.009c-.126-.024-.252-.05-.377-.076a.047.047,0,0,1-.037-.057.048.048,0,0,1,.057-.037c.125.027.25.052.375.076a.048.048,0,0,1-.009.1Zm4.938-.01a.048.048,0,0,1-.011-.1c.123-.028.247-.057.371-.089a.048.048,0,0,1,.024.094q-.187.047-.374.09Zm-5.688-.15h-.011q-.187-.044-.373-.091a.048.048,0,0,1,.024-.094q.185.047.371.091a.048.048,0,0,1-.011.095Zm6.431-.038a.048.048,0,0,1-.013-.095c.123-.034.245-.069.367-.106a.048.048,0,1,1,.028.092q-.184.056-.369.107Zm-7.173-.151-.013,0q-.186-.051-.369-.1a.048.048,0,1,1,.027-.093q.183.054.368.1a.048.048,0,0,1-.013.095Zm7.908-.07a.048.048,0,0,1-.015-.094c.121-.039.242-.079.362-.12a.048.048,0,0,1,.061.03.048.048,0,0,1-.03.061q-.181.062-.364.121Zm-8.643-.146-.014,0q-.184-.057-.366-.117a.048.048,0,0,1,.031-.092q.181.06.364.117a.048.048,0,0,1,.031.061A.048.048,0,0,1,2588.313,1516.489Zm9.367-.1a.048.048,0,0,1-.017-.094q.18-.065.358-.133a.049.049,0,0,1,.063.028.048.048,0,0,1-.028.062q-.178.068-.36.134A.043.043,0,0,1,2597.68,1516.387Zm-10.1-.137-.016,0-.362-.129a.048.048,0,1,1,.033-.091c.119.043.239.086.361.128a.048.048,0,0,1,.029.061A.047.047,0,0,1,2587.585,1516.249Zm10.812-.135a.048.048,0,0,1-.018-.093l.354-.144a.048.048,0,0,1,.037.089l-.356.145A.049.049,0,0,1,2598.4,1516.114Zm-11.532-.127-.017,0c-.121-.046-.24-.092-.358-.139a.048.048,0,1,1,.036-.089c.117.047.236.093.356.139a.048.048,0,0,1,.028.062A.049.049,0,0,1,2586.865,1515.988Zm12.24-.166a.047.047,0,0,1-.044-.029.048.048,0,0,1,.025-.063q.178-.076.351-.153a.048.048,0,1,1,.039.088l-.352.154A.059.059,0,0,1,2599.1,1515.822Zm-12.953-.117a.046.046,0,0,1-.019,0q-.18-.074-.354-.149a.048.048,0,1,1,.038-.089l.353.148a.048.048,0,0,1-.018.093Zm13.654-.194a.048.048,0,0,1-.02-.092l.347-.162a.048.048,0,0,1,.041.087l-.348.162A.052.052,0,0,1,2599.806,1515.511Zm-14.359-.108a.047.047,0,0,1-.019,0q-.18-.08-.35-.159a.048.048,0,0,1,.04-.088q.17.079.349.158a.048.048,0,0,1-.02.092Zm15.052-.219a.049.049,0,0,1-.043-.027.048.048,0,0,1,.022-.064l.343-.17a.048.048,0,0,1,.043.087c-.111.056-.226.112-.344.17A.048.048,0,0,1,2600.5,1515.184Zm-15.748-.1a.048.048,0,0,1-.021,0c-.119-.057-.235-.113-.346-.168a.048.048,0,0,1,.043-.086c.111.055.226.111.344.167a.048.048,0,0,1,.023.065A.047.047,0,0,1,2584.751,1515.082Zm16.434-.241a.048.048,0,0,1-.022-.091c.119-.061.232-.12.339-.177a.048.048,0,1,1,.045.086c-.108.057-.221.116-.341.177A.045.045,0,0,1,2601.185,1514.841Zm-17.121-.1a.049.049,0,0,1-.022-.005c-.12-.062-.234-.121-.341-.178a.048.048,0,0,1,.046-.085c.106.057.219.116.339.178a.048.048,0,0,1,.021.065A.047.047,0,0,1,2584.064,1514.741Zm17.8-.258a.049.049,0,0,1-.043-.025.048.048,0,0,1,.02-.065c.124-.068.237-.13.335-.185a.048.048,0,0,1,.047.084c-.1.055-.211.118-.336.185A.046.046,0,0,1,2601.863,1514.483Zm-18.476-.1a.051.051,0,0,1-.024-.006c-.125-.071-.237-.135-.333-.192a.049.049,0,0,1-.017-.066.048.048,0,0,1,.066-.017c.095.057.206.121.331.191a.048.048,0,0,1-.024.09Zm-.657-.4a.048.048,0,0,1-.028-.009c-.086-.06-.1-.078-.106-.093a.128.128,0,0,1-.008-.054c0-.042.005-.117.016-.236a.049.049,0,0,1,.052-.044.048.048,0,0,1,.044.052c-.01.117-.015.189-.015.228v.014a.841.841,0,0,0,.072.054.049.049,0,0,1-.027.088Zm-.041-.722h0a.048.048,0,0,1-.043-.053l.038-.381a.048.048,0,1,1,.1.009l-.038.381A.048.048,0,0,1,2582.69,1513.26Zm.075-.763h0a.049.049,0,0,1-.043-.052c.011-.121.023-.249.035-.382a.048.048,0,0,1,.1.009c-.012.133-.024.261-.035.382A.048.048,0,0,1,2582.765,1512.5Zm.068-.763h0a.047.047,0,0,1-.044-.052c.01-.124.021-.251.031-.382a.049.049,0,0,1,.052-.044.048.048,0,0,1,.044.052q-.015.2-.031.382A.048.048,0,0,1,2582.833,1511.734Zm.06-.764h0a.048.048,0,0,1-.044-.051c.009-.125.018-.253.026-.382a.048.048,0,0,1,.052-.045.049.049,0,0,1,.045.051q-.013.195-.026.383A.048.048,0,0,1,2582.893,1510.969Zm.049-.764h0a.048.048,0,0,1-.045-.051q.011-.189.02-.382a.048.048,0,0,1,.1,0q-.009.193-.02.383A.048.048,0,0,1,2582.941,1510.2Zm.036-.766h0a.048.048,0,0,1-.047-.05c.005-.126.009-.254.013-.382a.05.05,0,0,1,.05-.047.049.049,0,0,1,.047.049c0,.129-.008.257-.013.384A.048.048,0,0,1,2582.977,1509.439Zm.022-.766h0a.048.048,0,0,1-.047-.049c0-.127,0-.255,0-.382a.049.049,0,0,1,.049-.048.048.048,0,0,1,.048.048c0,.128,0,.256,0,.383A.048.048,0,0,1,2583,1508.674Zm0-.766a.048.048,0,0,1-.048-.048c0-.128,0-.255-.006-.382a.049.049,0,0,1,.047-.049.046.046,0,0,1,.049.047q0,.191.006.384a.048.048,0,0,1-.048.048Zm-.02-.766a.048.048,0,0,1-.048-.046c-.007-.128-.014-.255-.025-.381a.049.049,0,0,1,.045-.052.048.048,0,0,1,.052.044q.015.191.024.384a.048.048,0,0,1-.046.05Zm-.058-.763a.048.048,0,0,1-.048-.043q-.02-.193-.042-.38a.048.048,0,1,1,.1-.012c.015.125.03.253.042.381a.048.048,0,0,1-.043.053Zm-.093-.76a.048.048,0,0,1-.048-.042c-.018-.128-.037-.255-.057-.378a.048.048,0,1,1,.1-.015q.03.185.057.38a.048.048,0,0,1-.041.055Zm-.122-.756a.049.049,0,0,1-.047-.04q-.035-.2-.07-.376a.048.048,0,1,1,.095-.019c.023.12.047.246.071.377a.049.049,0,0,1-.039.056Zm-.147-.752a.048.048,0,0,1-.047-.038c-.029-.138-.058-.263-.083-.373a.048.048,0,1,1,.094-.022c.026.111.054.236.084.375a.048.048,0,0,1-.037.057Z" transform="translate(-2582.431 -1503.64)" fill="#bbb"/>
                  </g>
                </g>
              </g>
              <g id="Grupo_19" data-name="Grupo 19" transform="translate(0.314 8.624)" opacity="0.06">
                <g id="Grupo_18" data-name="Grupo 18">
                  <path id="Caminho_66" data-name="Caminho 66" d="M2600.865,1532.74a13.6,13.6,0,0,0,.295,4.855s-5.792,3.5-10.028,3.54c-5.37.052-11.333-3.489-11.4-3.65-.044-.1.371-2.492.391-5.428,0,0,7.311.553,10.842.518S2600.865,1532.74,2600.865,1532.74Z" transform="translate(-2579.725 -1532.056)" fill="#033961"/>
                </g>
              </g>
              <g id="Grupo_20" data-name="Grupo 20" transform="translate(9.106 1.219)">
                <path id="Caminho_67" data-name="Caminho 67" d="M2632.475,1491.632a4.04,4.04,0,0,0-1.974-.624,3.892,3.892,0,0,0-2.034.567,9.247,9.247,0,0,1,2.065-.258A11.813,11.813,0,0,1,2632.475,1491.632Z" transform="translate(-2628.467 -1491.006)" fill="#bbb"/>
              </g>
              <g id="Grupo_21" data-name="Grupo 21" transform="translate(4.238 13.126)">
                <path id="Caminho_68" data-name="Caminho 68" d="M2601.482,1557.016a14.448,14.448,0,0,0,7.089,1.956,11.894,11.894,0,0,0,6.75-1.719,41.809,41.809,0,0,1-6.688.672A46.946,46.946,0,0,1,2601.482,1557.016Z" transform="translate(-2601.482 -1557.016)" fill="#bbb"/>
              </g>
              <g id="Grupo_22" data-name="Grupo 22" transform="translate(4.43 8.88)">
                <path id="Caminho_69" data-name="Caminho 69" d="M2602.543,1533.477l13.819.358a30.815,30.815,0,0,1-7.036.913A27.71,27.71,0,0,1,2602.543,1533.477Z" transform="translate(-2602.543 -1533.477)" fill="#bbb"/>
              </g>
              <g id="Grupo_23" data-name="Grupo 23" transform="translate(4.214 4.524)">
                <path id="Caminho_70" data-name="Caminho 70" d="M2601.347,1510.744a20.09,20.09,0,0,1,7.082-1.416,18.686,18.686,0,0,1,6.759,1.455s-3.654-.363-6.719-.406C2605.691,1510.338,2601.347,1510.744,2601.347,1510.744Z" transform="translate(-2601.347 -1509.328)" fill="#bbb"/>
              </g>
            </g>
          </g>
        </g>
        <path id="Caminho_71" data-name="Caminho 71" d="M2595.35,1447.151l.525-.127a3.279,3.279,0,0,1-.24-1.265,3.488,3.488,0,0,1,.937-2.472,2.936,2.936,0,0,1,2.251-1,3.062,3.062,0,0,1,2.276.964,3.214,3.214,0,0,1,.952,2.365c0,.008,0,.016,0,.024h.016a6.366,6.366,0,0,1,1.69.256c0-.076.005-.153.005-.231a4.868,4.868,0,0,0-1.392-3.5,4.585,4.585,0,0,0-3.414-1.445,4.515,4.515,0,0,0-3.236,1.256l-.084.078V1438H2594v9.482Z" transform="translate(-2587.54 -1430.301)" fill="#fff"/>
        <path id="Caminho_72" data-name="Caminho 72" d="M2654.061,1458.5a3.149,3.149,0,0,1,1.206.674,1.075,1.075,0,0,1,.238.437c.605.176,1.208.337,1.824.481,0-.046,0-.093,0-.14a2.936,2.936,0,0,0-.443-1.662,2.979,2.979,0,0,0-1.359-1.05c-.153-.064-.438-.157-.872-.287a3.873,3.873,0,0,1-.907-.367,1.228,1.228,0,0,1-.435-.409,1.112,1.112,0,0,1-.125-.555,1.056,1.056,0,0,1,1.085-1.084,1.15,1.15,0,0,1,.835.285,1.2,1.2,0,0,1,.334.832l.014.228h1.734l-.012-.255a2.631,2.631,0,0,0-2.831-2.719,2.865,2.865,0,0,0-2.041.806,2.639,2.639,0,0,0-.847,1.972,2.506,2.506,0,0,0,.519,1.648A4.805,4.805,0,0,0,2654.061,1458.5Z" transform="translate(-2634.637 -1442.52)" fill="#fff"/>
      </g>
    </g>
    <rect id="Retângulo_2" data-name="Retângulo 2" width="165" height="37" transform="translate(43 440.385)" fill="none"/>
  </g>
</svg>
